<svg xmlns="http://www.w3.org/2000/svg" viewBox="0 0 200 34" fill="#ffffff"><path d="M102.221 0l4.185 6.596h4.884L109.134 0zm9.887 0l1.706 6.596h4.707L120.226 0zm11.094 0l-2.159 6.596h4.885L130.112 0zM7.809 10.035C2.706 10.035 0 12.165 0 17.003v.212c0 4.839 2.706 6.968 7.81 6.968H20.9c1.675 0 2.557.46 2.557 2.332v.516c0 1.873-.884 2.332-2.557 2.332H1.69L.408 34H21.04c5.103 0 7.81-2.13 7.81-6.968v-.516c0-4.838-2.706-6.968-7.81-6.968H7.95c-1.675 0-2.557-.46-2.557-2.332v-.212c0-1.873.883-2.33 2.557-2.33h18.554l1.281-4.637H7.81zm34.34.002c-5.284 0-8.224 2.343-8.224 7.382v9.2c0 5.038 2.941 7.38 8.224 7.38h18.73l-1.277-4.636H42.289c-1.718 0-2.968-.774-2.968-2.745v-9.2c0-1.97 1.25-2.744 2.968-2.744h17.168l1.284-4.637H42.15zm23.514 0v23.962h5.393V23.855h18.258v10.144h5.396V10.037h-5.396v9.265H71.056v-9.264h-5.393zm35.35 0v16.582c0 5.04 2.94 7.381 8.224 7.381h13.861c5.285 0 8.225-2.342 8.225-7.38V10.037h-5.393v16.58c0 1.972-1.254 2.745-2.972 2.745h-13.581c-1.719 0-2.971-.774-2.971-2.745v-16.58h-5.393zm44.299 0c-5.285 0-8.225 2.343-8.225 7.382v9.2c0 5.038 2.941 7.38 8.225 7.38h18.73l-1.279-4.636h-17.309c-1.718 0-2.972-.774-2.972-2.745v-9.2c0-1.97 1.254-2.744 2.972-2.744h17.168l1.283-4.637zm30.728 0c-5.285 0-8.225 2.343-8.225 7.382v9.2c0 5.038 2.94 7.38 8.225 7.38h15.736c5.283 0 8.224-2.342 8.224-7.38v-9.2c0-5.04-2.94-7.381-8.224-7.381H176.04zm.14 4.637h15.456c1.718 0 2.97.774 2.97 2.745v9.2c0 1.97-1.25 2.744-2.97 2.744H176.18c-1.718 0-2.969-.774-2.969-2.745v-9.2c0-1.97 1.25-2.744 2.97-2.744z"/></svg>