<svg width="402" height="88" viewBox="0 0 402 88" fill="none" xmlns="http://www.w3.org/2000/svg">
<path d="M298.5 0.800049C301.3 0.800049 303.9 1.20005 306.5 1.90005C309.1 2.60005 311.5 3.60006 313.8 5.00006C318.4 7.70006 322 11.4001 324.7 15.9001C326.1 18.2001 327.1 20.7 327.8 23.3C328.5 25.9 328.9 28.6001 328.9 31.4001C328.9 34.1001 328.5 36.8001 327.8 39.4001C327.1 42.0001 326.1 44.4001 324.7 46.7001C323.4 48.9001 321.8 51 319.9 52.8C318 54.6 316 56.2001 313.7 57.6001C311.4 58.9001 309 59.9001 306.4 60.7001C303.8 61.4001 301.1 61.8 298.3 61.8C295.5 61.8 292.8 61.4001 290.2 60.7001C287.6 60.0001 285.2 59.0001 282.9 57.6001C280.6 56.3001 278.6 54.7 276.8 52.8C275 51 273.4 48.9001 272.1 46.7001C270.8 44.4001 269.8 42.0001 269 39.4001C268.3 36.8001 267.9 34.1001 267.9 31.4001C267.9 28.6001 268.3 26.0001 269 23.4001C269.7 20.8001 270.7 18.4001 272.1 16.1001C273.5 13.8001 275.1 11.8001 276.9 9.90005C278.7 8.00005 280.8 6.50007 283 5.20007C285.3 3.90007 287.7 2.90007 290.3 2.10007C293.1 1.20007 295.8 0.800049 298.5 0.800049ZM274.9 31.1001C274.9 34.3001 275.5 37.3001 276.7 40.2001C277.9 43.1001 279.6 45.6001 281.8 47.7001C284 49.9001 286.5 51.6 289.3 52.8C292.2 54 295.2 54.6001 298.4 54.6001C301.6 54.6001 304.6 54 307.5 52.8C310.4 51.6 312.9 49.9001 315.1 47.7001C317.3 45.5001 319 43.0001 320.2 40.2001C321.4 37.4001 322 34.3001 322 31.1001C322 27.9001 321.4 24.9001 320.2 22.0001C319 19.1001 317.3 16.6001 315.1 14.4001C312.9 12.2001 310.4 10.5 307.5 9.30005C304.6 8.10005 301.6 7.50006 298.4 7.50006C295.2 7.50006 292.2 8.10005 289.3 9.30005C286.4 10.5 283.9 12.2001 281.8 14.4001C279.6 16.6001 277.9 19.1001 276.7 22.0001C275.5 24.9001 274.9 27.9001 274.9 31.1001Z" fill="white"/>
<path d="M339.9 2.79999L341.5 6.89999C342.6 9.69999 344.3 14 346.6 19.6L349.6 27C350.7 29.8 351.7 32.2 352.6 34.4L355.3 41.1L359 50.2C360.1 47.4 361.4 44.4 362.7 41.1L365.4 34.4L368.3 27L370.1 22.6L371.3 19.5C372.9 15.5 374.6 11.3 376.4 6.79999L378 2.70001C378.3 1.90001 378.9 1.5 379.7 1.5H383.9C384.9 1.5 385.3 1.79999 385.3 2.39999C385.3 2.49999 385.2 2.79999 385.1 3.29999L362 59.6L361.9 59.8V59.7C361.7 60 361.6 60.3 361.4 60.5C361.2 60.7 360.9 60.8 360.3 60.8H357.6C357.1 60.8 356.7 60.7 356.5 60.6C356.3 60.4 356.1 60.2 356 59.8L355.8 59.5L355.9 59.6L332.5 3.5C332.5 3.5 332.5 3.39999 332.4 3.29999C332.4 3.19999 332.4 3.00001 332.4 2.60001C332.4 2.00001 332.9 1.70001 333.8 1.70001H338.1C339 1.60001 339.6 1.99999 339.9 2.79999Z" fill="white"/>
<path d="M395.199 59.4V2.89999C395.199 2.49999 395.299 2.19999 395.499 1.89999C395.699 1.69999 395.999 1.5 396.399 1.5H400.599C400.999 1.5 401.299 1.59999 401.599 1.89999C401.899 2.09999 401.999 2.49999 401.999 2.89999V59.4C401.999 60.3 401.499 60.7 400.599 60.7H396.399C395.599 60.7 395.199 60.3 395.199 59.4Z" fill="white"/>
<path d="M90.3996 1.6001H0.599609V8.30008H90.3996V1.6001Z" fill="white"/>
<path d="M104.6 1.6001H146.1C146.5 1.6001 146.8 1.70009 147.1 1.90009C147.4 2.10009 147.5 2.40009 147.6 2.90009V7.00009C147.6 7.40009 147.5 7.8001 147.2 8.1001C146.9 8.4001 146.6 8.50009 146.1 8.50009H128.8V59.3001C128.8 59.7001 128.7 60.0001 128.4 60.3001C128.1 60.6001 127.8 60.7001 127.4 60.7001H123.3C122.9 60.7001 122.6 60.6001 122.3 60.3001C122 60.0001 121.9 59.7001 121.9 59.3001V8.50009H104.5C103.6 8.50009 103.1 8.00009 103.1 7.00009V2.90009C103.1 2.50009 103.2 2.20009 103.5 1.90009C103.9 1.70009 104.2 1.6001 104.6 1.6001Z" fill="white"/>
<path d="M177.299 0.800049C180.099 0.800049 182.699 1.20005 185.299 1.90005C187.899 2.60005 190.299 3.60006 192.599 5.00006C197.199 7.70006 200.799 11.4001 203.499 15.9001C204.899 18.2001 205.899 20.7 206.599 23.3C207.299 25.9 207.699 28.6001 207.699 31.4001C207.699 34.1001 207.299 36.8001 206.599 39.4001C205.899 42.0001 204.899 44.4001 203.499 46.7001C202.199 48.9001 200.599 51 198.699 52.8C196.799 54.6 194.799 56.2001 192.499 57.6001C190.199 58.9001 187.799 59.9001 185.199 60.7001C182.599 61.4001 179.899 61.8 177.099 61.8C174.299 61.8 171.599 61.4001 168.999 60.7001C166.399 60.0001 163.999 59.0001 161.699 57.6001C159.399 56.3001 157.399 54.7 155.599 52.8C153.799 51 152.199 48.9001 150.899 46.7001C149.599 44.4001 148.599 42.0001 147.799 39.4001C147.099 36.8001 146.699 34.1001 146.699 31.4001C146.699 28.6001 147.099 26.0001 147.799 23.4001C148.499 20.8001 149.499 18.4001 150.899 16.1001C152.299 13.8001 153.899 11.8001 155.699 9.90005C157.499 8.00005 159.599 6.50007 161.799 5.20007C164.099 3.90007 166.499 2.90007 169.099 2.10007C171.899 1.20007 174.499 0.800049 177.299 0.800049ZM153.699 31.1001C153.699 34.3001 154.299 37.3001 155.499 40.2001C156.699 43.1001 158.399 45.6001 160.599 47.7001C162.799 49.9001 165.299 51.6 168.099 52.8C170.999 54 173.999 54.6001 177.199 54.6001C180.399 54.6001 183.399 54 186.299 52.8C189.199 51.6 191.699 49.9001 193.899 47.7001C196.099 45.5001 197.799 43.0001 198.999 40.2001C200.199 37.4001 200.799 34.3001 200.799 31.1001C200.799 27.9001 200.199 24.9001 198.999 22.0001C197.799 19.1001 196.099 16.6001 193.899 14.4001C191.699 12.2001 189.199 10.5 186.299 9.30005C183.399 8.10005 180.399 7.50006 177.199 7.50006C173.999 7.50006 170.999 8.10005 168.099 9.30005C165.199 10.5 162.699 12.2001 160.599 14.4001C158.399 16.6001 156.699 19.1001 155.499 22.0001C154.299 24.9001 153.699 27.9001 153.699 31.1001Z" fill="white"/>
<path d="M220.6 1.6001H236.4C240.6 1.6001 244.6 2.70008 248.4 4.80008C252 6.90008 254.9 9.70008 257.1 13.3001C258.2 15.1001 259 17.0001 259.6 19.1001C260.2 21.2001 260.5 23.3001 260.5 25.6001C260.5 28.8001 259.9 31.9001 258.7 34.8001C257.5 37.7001 255.7 40.3001 253.5 42.5001C251.3 44.7001 248.7 46.5001 245.8 47.7001C242.9 49.0001 239.8 49.6001 236.5 49.6001H225.4V58.7001C225.4 60.0001 224.7 60.7001 223.4 60.7001H220.5C219.2 60.7001 218.5 60.0001 218.5 58.7001V3.7001C218.6 2.3001 219.2 1.6001 220.6 1.6001ZM225.4 8.30008V42.8001H236.5C238.8 42.8001 240.9 42.4001 243 41.5001C245.1 40.6001 246.9 39.4001 248.6 37.8001C250.2 36.2001 251.5 34.4001 252.4 32.3001C253.3 30.2001 253.8 28.0001 253.8 25.6001C253.8 23.2001 253.3 20.9001 252.4 18.8001C251.5 16.7001 250.2 14.9001 248.5 13.3001C246.9 11.7001 244.9 10.5001 242.8 9.6001C240.6 8.7001 238.3 8.30008 235.9 8.30008H225.4Z" fill="white"/>
<path d="M399.599 82.5002V72.1002H401.899V82.5002H399.599ZM399.599 70.5002V68.4001H401.899V70.5002H399.599ZM387.399 82.5002V72.1002H389.699V76.2002H394.399V72.1002H396.699V82.5002H394.399V78.4001H389.699V82.5002H387.399ZM375.599 82.5002L379.399 77.2002L375.699 72.1002H378.399L380.699 75.4001L382.999 72.1002H385.699L381.999 77.2002L385.799 82.5002H383.099L380.699 79.1002L378.299 82.5002H375.599ZM369.899 80.7002C370.499 80.7002 370.999 80.5002 371.399 80.2002C371.799 79.9002 372.099 79.5002 372.299 79.0002C372.499 78.5002 372.599 77.9001 372.599 77.3001C372.599 76.7001 372.499 76.1002 372.299 75.6002C372.099 75.1002 371.799 74.7001 371.399 74.4001C370.999 74.1001 370.499 73.9001 369.899 73.9001C369.299 73.9001 368.799 74.0001 368.499 74.3001C368.099 74.6001 367.899 75.0002 367.699 75.5002C367.499 76.0002 367.399 76.6001 367.399 77.3001C367.399 78.0001 367.499 78.6002 367.699 79.1002C367.899 79.6002 368.199 80.0001 368.499 80.3001C368.799 80.5001 369.299 80.7002 369.899 80.7002ZM365.299 87.1002V72.1002H367.399V79.4001H367.699V87.1002H365.299ZM370.299 82.7002C369.299 82.7002 368.399 82.5002 367.699 82.0002C366.999 81.5002 366.499 80.9002 366.099 80.0002C365.799 79.2002 365.599 78.2002 365.599 77.2002C365.599 76.2002 365.799 75.2001 366.099 74.4001C366.399 73.6001 366.999 72.9001 367.599 72.4001C368.299 71.9001 369.099 71.7002 370.099 71.7002C371.099 71.7002 371.899 71.9001 372.699 72.4001C373.399 72.9001 373.999 73.5001 374.399 74.4001C374.799 75.2001 374.999 76.2002 374.999 77.2002C374.999 78.2002 374.799 79.2002 374.399 80.0002C373.999 80.8002 373.499 81.5002 372.699 82.0002C372.099 82.5002 371.199 82.7002 370.299 82.7002ZM354.799 77.9001V76.1002H361.999V77.9001H354.799ZM358.399 82.7002C357.299 82.7002 356.399 82.5002 355.599 82.0002C354.799 81.5002 354.199 80.9002 353.699 80.1002C353.299 79.3002 352.999 78.4001 352.999 77.3001C352.999 76.2001 353.199 75.2001 353.699 74.3001C354.099 73.5001 354.699 72.8001 355.499 72.4001C356.299 71.9001 357.199 71.7002 358.199 71.7002C359.299 71.7002 360.199 72.0002 360.999 72.5002C361.799 73.0002 362.299 73.7002 362.699 74.6002C363.099 75.5002 363.199 76.6001 363.099 77.8001H360.799V77.0002C360.799 75.9002 360.599 75.0002 360.199 74.5002C359.799 74.0002 359.199 73.7002 358.299 73.7002C357.299 73.7002 356.599 74.0002 356.199 74.6002C355.699 75.2002 355.499 76.0002 355.499 77.2002C355.499 78.3002 355.699 79.1002 356.199 79.6002C356.699 80.2002 357.299 80.5002 358.199 80.5002C358.799 80.5002 359.299 80.4002 359.699 80.1002C360.099 79.8002 360.399 79.5002 360.699 79.0002L362.999 79.7002C362.599 80.6002 361.999 81.4001 361.199 81.9001C360.299 82.5001 359.399 82.7002 358.399 82.7002ZM345.199 76.4001H347.099C347.299 76.4001 347.499 76.4001 347.699 76.4001C347.899 76.4001 347.999 76.3001 348.199 76.3001C348.399 76.2001 348.599 76.1001 348.699 75.9001C348.799 75.7001 348.799 75.5002 348.799 75.2002C348.799 74.9002 348.699 74.7002 348.599 74.5002C348.499 74.3002 348.299 74.2002 348.099 74.1002C347.899 74.0002 347.699 74.0002 347.499 74.0002C347.299 74.0002 347.099 74.0002 347.099 74.0002H345.199V76.4001ZM345.199 80.7002H347.799C347.899 80.7002 348.099 80.7002 348.199 80.7002C348.399 80.7002 348.499 80.6002 348.599 80.6002C348.799 80.5002 348.999 80.4002 349.099 80.2002C349.199 80.0002 349.299 79.8002 349.299 79.5002C349.299 79.2002 349.199 78.9002 349.099 78.7002C348.899 78.5002 348.799 78.4001 348.499 78.3001C348.399 78.2001 348.199 78.2002 348.099 78.2002C347.899 78.2002 347.799 78.2002 347.699 78.2002H345.099V80.7002H345.199ZM342.899 82.5002V72.1002H347.599C347.899 72.1002 348.299 72.1002 348.599 72.2002C348.899 72.2002 349.099 72.3001 349.399 72.3001C349.899 72.4001 350.299 72.7002 350.699 73.2002C351.099 73.6002 351.299 74.2002 351.299 75.0002C351.299 75.4002 351.199 75.8002 351.099 76.1002C350.999 76.4002 350.799 76.6001 350.499 76.8001C350.399 76.9001 350.299 77.0002 350.199 77.0002C350.099 77.1002 349.999 77.1002 349.899 77.2002C350.199 77.2002 350.399 77.3001 350.599 77.4001C350.999 77.6001 351.299 77.8002 351.499 78.2002C351.699 78.5002 351.899 79.0002 351.899 79.6002C351.899 80.3002 351.699 80.9001 351.399 81.4001C351.099 81.9001 350.599 82.2001 349.899 82.4001C349.699 82.5001 349.399 82.5002 349.099 82.5002C348.799 82.5002 348.499 82.5002 348.199 82.5002H342.899ZM335.599 80.6002C336.499 80.6002 337.199 80.3002 337.699 79.7002C338.099 79.1002 338.399 78.3001 338.399 77.3001C338.399 76.3001 338.199 75.5001 337.699 74.9001C337.199 74.3001 336.599 74.0002 335.599 74.0002C334.999 74.0002 334.499 74.1001 334.099 74.4001C333.699 74.7001 333.399 75.1002 333.199 75.6002C332.999 76.1002 332.899 76.7001 332.899 77.3001C332.899 78.3001 333.099 79.1002 333.599 79.7002C333.999 80.3002 334.699 80.6002 335.599 80.6002ZM335.599 82.7002C334.599 82.7002 333.599 82.5002 332.899 82.0002C332.099 81.5002 331.499 80.9002 331.099 80.1002C330.699 79.3002 330.499 78.3001 330.499 77.3001C330.499 76.2001 330.699 75.3001 331.199 74.4001C331.599 73.6001 332.199 72.9002 332.999 72.5002C333.799 72.0002 334.699 71.8001 335.699 71.8001C336.699 71.8001 337.699 72.0002 338.399 72.5002C339.199 73.0002 339.799 73.6001 340.199 74.4001C340.599 75.2001 340.799 76.2002 340.799 77.2002C340.799 78.3002 340.599 79.2002 340.199 80.1002C339.799 80.9002 339.199 81.6002 338.399 82.0002C337.499 82.5002 336.599 82.7002 335.599 82.7002ZM319.199 82.5002V72.1002H328.199V82.5002H325.999V74.3001H321.599V82.5002H319.199ZM310.199 82.5002V72.1002H312.499V82.5002H310.199ZM310.199 70.5002V68.4001H312.499V70.5002H310.199ZM297.999 82.5002V72.1002H300.299V76.2002H304.999V72.1002H307.299V82.5002H304.999V78.4001H300.299V82.5002H297.999ZM291.399 82.7002C290.299 82.7002 289.399 82.5002 288.699 82.0002C287.899 81.5002 287.399 80.9002 286.999 80.0002C286.599 79.2002 286.399 78.2002 286.399 77.2002C286.399 76.1002 286.599 75.2001 286.999 74.4001C287.399 73.6001 287.999 72.9002 288.799 72.5002C289.599 72.0002 290.499 71.8001 291.499 71.8001C292.699 71.8001 293.699 72.1002 294.499 72.7002C295.299 73.3002 295.899 74.1002 296.099 75.1002L293.799 75.7002C293.599 75.1002 293.299 74.7001 292.899 74.4001C292.499 74.1001 291.999 73.9001 291.499 73.9001C290.899 73.9001 290.399 74.0001 289.999 74.3001C289.599 74.6001 289.299 75.0002 289.099 75.5002C288.899 76.0002 288.799 76.6002 288.799 77.2002C288.799 78.2002 288.999 79.0002 289.499 79.6002C289.899 80.2002 290.599 80.5002 291.499 80.5002C292.099 80.5002 292.599 80.4002 292.999 80.1002C293.399 79.8002 293.599 79.4001 293.799 78.9001L296.199 79.4001C295.899 80.5001 295.299 81.3001 294.499 81.8001C293.599 82.5001 292.599 82.7002 291.399 82.7002ZM279.199 80.9001C279.699 80.9001 280.199 80.8002 280.499 80.6002C280.899 80.4002 281.199 80.2001 281.399 79.9001C281.599 79.6001 281.799 79.4002 281.799 79.1002C281.899 78.8002 281.999 78.5002 281.999 78.1002C281.999 77.7002 281.999 77.4002 281.999 77.2002L282.699 77.4001C281.999 77.5001 281.399 77.6002 280.899 77.7002C280.399 77.8002 279.999 77.9001 279.599 77.9001C279.199 78.0001 278.899 78.1002 278.599 78.1002C278.299 78.2002 278.099 78.3001 277.899 78.4001C277.699 78.5001 277.599 78.7001 277.499 78.8001C277.399 79.0001 277.299 79.2001 277.299 79.4001C277.299 79.7001 277.399 79.9002 277.499 80.1002C277.599 80.3002 277.799 80.5002 278.099 80.6002C278.499 80.8002 278.799 80.9001 279.199 80.9001ZM278.699 82.7002C277.899 82.7002 277.299 82.6001 276.799 82.3001C276.299 82.0001 275.899 81.6002 275.599 81.2002C275.299 80.7002 275.199 80.2002 275.199 79.6002C275.199 79.1002 275.299 78.6002 275.499 78.2002C275.699 77.8002 275.899 77.5002 276.299 77.2002C276.599 76.9002 277.099 76.7002 277.599 76.5002C277.999 76.4002 278.499 76.2002 279.099 76.1002C279.699 76.0002 280.299 75.9001 280.899 75.8001C281.599 75.7001 282.199 75.6002 282.999 75.5002L282.199 76.0002C282.199 75.3002 281.999 74.8001 281.699 74.4001C281.399 74.1001 280.799 73.9001 279.999 73.9001C279.499 73.9001 279.099 74.0002 278.599 74.2002C278.199 74.4002 277.899 74.8001 277.699 75.3001L275.599 74.6002C275.899 73.7002 276.299 73.0002 277.099 72.5002C277.799 72.0002 278.799 71.7002 279.999 71.7002C280.899 71.7002 281.699 71.9002 282.399 72.2002C283.099 72.5002 283.599 73.0002 283.999 73.7002C284.199 74.1002 284.299 74.4001 284.299 74.8001C284.299 75.2001 284.399 75.6002 284.399 76.0002V82.4001H282.399V80.1002L282.699 80.5002C282.199 81.3002 281.699 81.8002 281.099 82.2002C280.499 82.6002 279.699 82.7002 278.699 82.7002ZM270.799 82.5002V79.0002C270.399 79.2002 269.999 79.3001 269.599 79.4001C269.199 79.5001 268.699 79.6002 268.199 79.6002C267.099 79.6002 266.299 79.4001 265.599 78.9001C264.999 78.4001 264.499 77.7001 264.399 76.8001C264.299 76.5001 264.299 76.3002 264.299 76.0002C264.299 75.7002 264.299 75.5002 264.299 75.2002C264.299 75.0002 264.299 74.8002 264.299 74.7002V72.2002H266.699V74.7002C266.699 74.8002 266.699 75.0001 266.699 75.3001C266.699 75.6001 266.699 75.8002 266.799 76.1002C266.899 76.6002 267.099 77.0002 267.499 77.2002C267.799 77.4002 268.299 77.6002 268.899 77.6002C269.399 77.6002 269.799 77.5001 270.099 77.4001C270.499 77.3001 270.799 77.1001 270.999 76.9001V72.1002H273.299V82.5002H270.799ZM255.299 87.1002L257.299 81.6002V83.2002L252.799 72.1002H255.199L258.399 80.3001H257.799L260.899 72.1002H263.199L257.399 87.1002H255.299ZM247.799 82.7002C246.699 82.7002 245.799 82.5002 245.099 82.0002C244.299 81.5002 243.799 80.9002 243.399 80.0002C242.999 79.2002 242.799 78.2002 242.799 77.2002C242.799 76.1002 242.999 75.2001 243.399 74.4001C243.799 73.6001 244.399 72.9002 245.199 72.5002C245.999 72.0002 246.899 71.8001 247.899 71.8001C249.099 71.8001 250.099 72.1002 250.899 72.7002C251.699 73.3002 252.299 74.1002 252.499 75.1002L250.199 75.7002C249.999 75.1002 249.699 74.7001 249.299 74.4001C248.899 74.1001 248.399 73.9001 247.899 73.9001C247.299 73.9001 246.799 74.0001 246.399 74.3001C245.999 74.6001 245.699 75.0002 245.499 75.5002C245.299 76.0002 245.199 76.6002 245.199 77.2002C245.199 78.2002 245.399 79.0002 245.899 79.6002C246.299 80.2002 246.999 80.5002 247.899 80.5002C248.499 80.5002 248.999 80.4002 249.399 80.1002C249.799 79.8002 249.999 79.4001 250.199 78.9001L252.599 79.4001C252.299 80.5001 251.699 81.3001 250.899 81.8001C249.899 82.5001 248.899 82.7002 247.799 82.7002Z" fill="white"/>
<path d="M90.2004 37.1001H0.900391V43.3001H90.2004V37.1001Z" fill="#008295"/>
<path d="M90.4996 43.6002H0.599609V36.9001H90.3996V43.6002H90.4996ZM1.19961 43.0002H89.8996V37.4001H1.19961V43.0002Z" fill="#008295"/>
<path d="M90.2004 19.5H0.900391V25.7H90.2004V19.5Z" fill="#008295"/>
<path d="M90.4996 26.0001H0.599609V19.3H90.3996V26.0001H90.4996ZM1.19961 25.4001H89.8996V19.8H1.19961V25.4001Z" fill="#008295"/>
<path d="M90.2004 54.8H0.900391V61.0001H90.2004V54.8Z" fill="#008295"/>
<path d="M90.4996 61.2H0.599609V54.5H90.3996V61.2H90.4996ZM1.19961 60.7H89.8996V55.1H1.19961V60.7Z" fill="#008295"/>
</svg>
